<svg width="22" height="24" viewBox="0 0 22 24" fill="none" xmlns="http://www.w3.org/2000/svg">
<path d="M2.83333 23.6667C2.19167 23.6667 1.64236 23.4382 1.18542 22.9813C0.728472 22.5243 0.5 21.975 0.5 21.3334V5.00004C0.5 4.35837 0.728472 3.80907 1.18542 3.35212C1.64236 2.89518 2.19167 2.66671 2.83333 2.66671H4V0.333374H6.33333V2.66671H15.6667V0.333374H18V2.66671H19.1667C19.8083 2.66671 20.3576 2.89518 20.8146 3.35212C21.2715 3.80907 21.5 4.35837 21.5 5.00004V21.3334C21.5 21.975 21.2715 22.5243 20.8146 22.9813C20.3576 23.4382 19.8083 23.6667 19.1667 23.6667H2.83333ZM2.83333 21.3334H19.1667V9.66671H2.83333V21.3334ZM2.83333 7.33337H19.1667V5.00004H2.83333V7.33337ZM11 14.3334C10.6694 14.3334 10.3924 14.2216 10.1687 13.998C9.94514 13.7743 9.83333 13.4973 9.83333 13.1667C9.83333 12.8362 9.94514 12.5591 10.1687 12.3355C10.3924 12.1118 10.6694 12 11 12C11.3306 12 11.6076 12.1118 11.8313 12.3355C12.0549 12.5591 12.1667 12.8362 12.1667 13.1667C12.1667 13.4973 12.0549 13.7743 11.8313 13.998C11.6076 14.2216 11.3306 14.3334 11 14.3334ZM6.33333 14.3334C6.00278 14.3334 5.72569 14.2216 5.50208 13.998C5.27847 13.7743 5.16667 13.4973 5.16667 13.1667C5.16667 12.8362 5.27847 12.5591 5.50208 12.3355C5.72569 12.1118 6.00278 12 6.33333 12C6.66389 12 6.94097 12.1118 7.16458 12.3355C7.38819 12.5591 7.5 12.8362 7.5 13.1667C7.5 13.4973 7.38819 13.7743 7.16458 13.998C6.94097 14.2216 6.66389 14.3334 6.33333 14.3334ZM15.6667 14.3334C15.3361 14.3334 15.059 14.2216 14.8354 13.998C14.6118 13.7743 14.5 13.4973 14.5 13.1667C14.5 12.8362 14.6118 12.5591 14.8354 12.3355C15.059 12.1118 15.3361 12 15.6667 12C15.9972 12 16.2743 12.1118 16.4979 12.3355C16.7215 12.5591 16.8333 12.8362 16.8333 13.1667C16.8333 13.4973 16.7215 13.7743 16.4979 13.998C16.2743 14.2216 15.9972 14.3334 15.6667 14.3334ZM11 19C10.6694 19 10.3924 18.8882 10.1687 18.6646C9.94514 18.441 9.83333 18.1639 9.83333 17.8334C9.83333 17.5028 9.94514 17.2257 10.1687 17.0021C10.3924 16.7785 10.6694 16.6667 11 16.6667C11.3306 16.6667 11.6076 16.7785 11.8313 17.0021C12.0549 17.2257 12.1667 17.5028 12.1667 17.8334C12.1667 18.1639 12.0549 18.441 11.8313 18.6646C11.6076 18.8882 11.3306 19 11 19ZM6.33333 19C6.00278 19 5.72569 18.8882 5.50208 18.6646C5.27847 18.441 5.16667 18.1639 5.16667 17.8334C5.16667 17.5028 5.27847 17.2257 5.50208 17.0021C5.72569 16.7785 6.00278 16.6667 6.33333 16.6667C6.66389 16.6667 6.94097 16.7785 7.16458 17.0021C7.38819 17.2257 7.5 17.5028 7.5 17.8334C7.5 18.1639 7.38819 18.441 7.16458 18.6646C6.94097 18.8882 6.66389 19 6.33333 19ZM15.6667 19C15.3361 19 15.059 18.8882 14.8354 18.6646C14.6118 18.441 14.5 18.1639 14.5 17.8334C14.5 17.5028 14.6118 17.2257 14.8354 17.0021C15.059 16.7785 15.3361 16.6667 15.6667 16.6667C15.9972 16.6667 16.2743 16.7785 16.4979 17.0021C16.7215 17.2257 16.8333 17.5028 16.8333 17.8334C16.8333 18.1639 16.7215 18.441 16.4979 18.6646C16.2743 18.8882 15.9972 19 15.6667 19Z" fill="white"/>
</svg>
