<svg width="17" height="16" viewBox="0 0 17 16" fill="none" xmlns="http://www.w3.org/2000/svg">
<path fill-rule="evenodd" clip-rule="evenodd" d="M0.59375 14.4062C0.59375 13.9403 0.915545 13.5625 1.3125 13.5625H15.6875C16.0845 13.5625 16.4062 13.9403 16.4062 14.4062C16.4062 14.8722 16.0845 15.25 15.6875 15.25H1.3125C0.915545 15.25 0.59375 14.8722 0.59375 14.4062Z" fill="white"/>
<path fill-rule="evenodd" clip-rule="evenodd" d="M0.59375 7.65625C0.59375 7.19026 0.915545 6.8125 1.3125 6.8125H15.6875C16.0845 6.8125 16.4062 7.19026 16.4062 7.65625C16.4062 8.12224 16.0845 8.5 15.6875 8.5H1.3125C0.915545 8.5 0.59375 8.12224 0.59375 7.65625Z" fill="white"/>
<path fill-rule="evenodd" clip-rule="evenodd" d="M0.59375 0.90625C0.59375 0.44026 0.915545 0.0625 1.3125 0.0625H15.6875C16.0845 0.0625 16.4062 0.44026 16.4062 0.90625C16.4062 1.37224 16.0845 1.75 15.6875 1.75H1.3125C0.915545 1.75 0.59375 1.37224 0.59375 0.90625Z" fill="white"/>
</svg>
