<svg width="19" height="26" viewBox="0 0 19 26" fill="none" xmlns="http://www.w3.org/2000/svg">
<path d="M9.5 12.9231C10.1531 12.9231 10.7122 12.67 11.1773 12.1638C11.6424 11.6577 11.875 11.0492 11.875 10.3385C11.875 9.62769 11.6424 9.01923 11.1773 8.51308C10.7122 8.00692 10.1531 7.75385 9.5 7.75385C8.84688 7.75385 8.28776 8.00692 7.82266 8.51308C7.35755 9.01923 7.125 9.62769 7.125 10.3385C7.125 11.0492 7.35755 11.6577 7.82266 12.1638C8.28776 12.67 8.84688 12.9231 9.5 12.9231ZM9.5 22.4215C11.9146 20.0092 13.7057 17.8177 14.8734 15.8469C16.0411 13.8762 16.625 12.1262 16.625 10.5969C16.625 8.24923 15.9372 6.32692 14.5617 4.83C13.1862 3.33308 11.499 2.58462 9.5 2.58462C7.50104 2.58462 5.8138 3.33308 4.43828 4.83C3.06276 6.32692 2.375 8.24923 2.375 10.5969C2.375 12.1262 2.95885 13.8762 4.12656 15.8469C5.29427 17.8177 7.08542 20.0092 9.5 22.4215ZM9.5 25.8462C6.31354 22.8954 3.93359 20.1546 2.36016 17.6238C0.786719 15.0931 0 12.7508 0 10.5969C0 7.36615 0.954948 4.79231 2.86484 2.87538C4.77474 0.958462 6.98646 0 9.5 0C12.0135 0 14.2253 0.958462 16.1352 2.87538C18.0451 4.79231 19 7.36615 19 10.5969C19 12.7508 18.2133 15.0931 16.6398 17.6238C15.0664 20.1546 12.6865 22.8954 9.5 25.8462Z" fill="white"/>
</svg>
