<svg width="22" height="22" viewBox="0 0 22 22" fill="none" xmlns="http://www.w3.org/2000/svg">
<path d="M14.5753 16.0916L16.092 14.575L12.0837 10.5666V5.58329H9.91699V11.4333L14.5753 16.0916ZM11.0003 21.8333C9.50171 21.8333 8.09338 21.5489 6.77533 20.9802C5.45727 20.4114 4.31074 19.6395 3.33574 18.6645C2.36074 17.6895 1.58887 16.543 1.02012 15.225C0.451367 13.9069 0.166992 12.4986 0.166992 11C0.166992 9.50135 0.451367 8.09302 1.02012 6.77496C1.58887 5.4569 2.36074 4.31038 3.33574 3.33538C4.31074 2.36038 5.45727 1.5885 6.77533 1.01975C8.09338 0.451001 9.50171 0.166626 11.0003 0.166626C12.4989 0.166626 13.9073 0.451001 15.2253 1.01975C16.5434 1.5885 17.6899 2.36038 18.6649 3.33538C19.6399 4.31038 20.4118 5.4569 20.9805 6.77496C21.5493 8.09302 21.8337 9.50135 21.8337 11C21.8337 12.4986 21.5493 13.9069 20.9805 15.225C20.4118 16.543 19.6399 17.6895 18.6649 18.6645C17.6899 19.6395 16.5434 20.4114 15.2253 20.9802C13.9073 21.5489 12.4989 21.8333 11.0003 21.8333ZM11.0003 19.6666C13.4017 19.6666 15.4465 18.8225 17.1347 17.1343C18.8229 15.4461 19.667 13.4013 19.667 11C19.667 8.59857 18.8229 6.55378 17.1347 4.86558C15.4465 3.17739 13.4017 2.33329 11.0003 2.33329C8.59894 2.33329 6.55415 3.17739 4.86595 4.86558C3.17776 6.55378 2.33366 8.59857 2.33366 11C2.33366 13.4013 3.17776 15.4461 4.86595 17.1343C6.55415 18.8225 8.59894 19.6666 11.0003 19.6666Z" fill="white"/>
</svg>
